# xmcd
#
# Track frame offsets: 
#        150
#        8468
#        19335
#        30746
#        40480
#        55052
#        65616
#        77181
#        85404
#        96785
#
# Disc length: 1442 seconds
#
# Revision: 0
# Processed by: cddbd v1.5.2PL0 Copyright (c) Steve Scherf et al.
# Submitted via: ExactAudioCopy v0.95b4
#
DISCID=7805a00a
DTITLE=Brent Amaker and the Rodeo - Brent Amaker and the Rodeo
DYEAR=2006
DGENRE=Country
TTITLE0=You're No Good
TTITLE1=I've Got a Little Hillbilly in Me
TTITLE2=Sissy New Age Cowboy
TTITLE3=Reno
TTITLE4=Bring Me the Whiskey
TTITLE5=I Guess You Wanna Die
TTITLE6=Cold Front
TTITLE7=Get the Hell Out
TTITLE8=You Call Me the Devil
TTITLE9=Babe
EXTD=
EXTT0=
EXTT1=
EXTT2=
EXTT3=
EXTT4=
EXTT5=
EXTT6=
EXTT7=
EXTT8=
EXTT9=
PLAYORDER=
